<?xml version="1.0" encoding="UTF-8" standalone="no"?>
<!DOCTYPE svg PUBLIC "-//W3C//DTD SVG 1.1//EN"
 "http://www.w3.org/Graphics/SVG/1.1/DTD/svg11.dtd">
<!-- Generated by graphviz version 2.40.1 (20161225.0304)
 -->
<!-- Title: G Pages: 1 -->
<svg width="1829pt" height="854pt"
 viewBox="0.00 0.00 1828.88 854.00" xmlns="http://www.w3.org/2000/svg" xmlns:xlink="http://www.w3.org/1999/xlink">
<g id="graph0" class="graph" transform="scale(1 1) rotate(0) translate(4 850)">
<title>G</title>
<polygon fill="#ffffff" stroke="transparent" points="-4,4 -4,-850 1824.875,-850 1824.875,4 -4,4"/>
<!-- alpine:3.7 -->
<g id="node1" class="node">
<title>alpine:3.7</title>
<polygon fill="none" stroke="#000000" points="184.1994,-144 113.0038,-144 113.0038,-108 184.1994,-108 184.1994,-144"/>
<text text-anchor="middle" x="148.6016" y="-121.8" font-family="Times,serif" font-size="14.00" fill="#000000">alpine:3.7</text>
</g>
<!-- eu.gcr.io/karhoo&#45;common/karhoo&#45;alpine:0.1.1 -->
<g id="node2" class="node">
<title>eu.gcr.io/karhoo&#45;common/karhoo&#45;alpine:0.1.1</title>
<polygon fill="none" stroke="#000000" points="631.1558,-144 356.8374,-144 356.8374,-108 631.1558,-108 631.1558,-144"/>
<text text-anchor="middle" x="493.9966" y="-121.8" font-family="Times,serif" font-size="14.00" fill="#000000">eu.gcr.io/karhoo&#45;common/karhoo&#45;alpine:0.1.1</text>
</g>
<!-- alpine:3.7&#45;&gt;eu.gcr.io/karhoo&#45;common/karhoo&#45;alpine:0.1.1 -->
<g id="edge1" class="edge">
<title>alpine:3.7&#45;&gt;eu.gcr.io/karhoo&#45;common/karhoo&#45;alpine:0.1.1</title>
<path fill="none" stroke="#000000" d="M184.264,-126C222.7977,-126 286.7351,-126 346.544,-126"/>
<polygon fill="#000000" stroke="#000000" points="346.8769,-129.5001 356.8769,-126 346.8768,-122.5001 346.8769,-129.5001"/>
</g>
<!-- eu.gcr.io/karhoo&#45;common/karhoo&#45;gcs&#45;sync:0.2.1 -->
<g id="node9" class="node">
<title>eu.gcr.io/karhoo&#45;common/karhoo&#45;gcs&#45;sync:0.2.1</title>
<polygon fill="none" stroke="#000000" points="1018.5703,-252 729.6934,-252 729.6934,-216 1018.5703,-216 1018.5703,-252"/>
<text text-anchor="middle" x="874.1318" y="-229.8" font-family="Times,serif" font-size="14.00" fill="#000000">eu.gcr.io/karhoo&#45;common/karhoo&#45;gcs&#45;sync:0.2.1</text>
</g>
<!-- eu.gcr.io/karhoo&#45;common/karhoo&#45;alpine:0.1.1&#45;&gt;eu.gcr.io/karhoo&#45;common/karhoo&#45;gcs&#45;sync:0.2.1 -->
<g id="edge5" class="edge">
<title>eu.gcr.io/karhoo&#45;common/karhoo&#45;alpine:0.1.1&#45;&gt;eu.gcr.io/karhoo&#45;common/karhoo&#45;gcs&#45;sync:0.2.1</title>
<path fill="none" stroke="#000000" d="M547.9858,-144.1314C594.698,-159.819 654.79,-180 654.79,-180 654.79,-180 690.79,-207 690.79,-207 690.79,-207 712.9224,-210.2593 741.8077,-214.5132"/>
<polygon fill="#000000" stroke="#000000" points="741.4369,-217.9962 751.8402,-215.9906 742.4569,-211.0709 741.4369,-217.9962"/>
</g>
<!-- eu.gcr.io/karhoo&#45;common/karhoo&#45;goose:0.3.0 -->
<g id="node15" class="node">
<title>eu.gcr.io/karhoo&#45;common/karhoo&#45;goose:0.3.0</title>
<polygon fill="none" stroke="#000000" points="1010.2464,-198 738.0173,-198 738.0173,-162 1010.2464,-162 1010.2464,-198"/>
<text text-anchor="middle" x="874.1318" y="-175.8" font-family="Times,serif" font-size="14.00" fill="#000000">eu.gcr.io/karhoo&#45;common/karhoo&#45;goose:0.3.0</text>
</g>
<!-- eu.gcr.io/karhoo&#45;common/karhoo&#45;alpine:0.1.1&#45;&gt;eu.gcr.io/karhoo&#45;common/karhoo&#45;goose:0.3.0 -->
<g id="edge11" class="edge">
<title>eu.gcr.io/karhoo&#45;common/karhoo&#45;alpine:0.1.1&#45;&gt;eu.gcr.io/karhoo&#45;common/karhoo&#45;goose:0.3.0</title>
<path fill="none" stroke="#000000" d="M620.8403,-144.0187C658.2004,-149.3259 699.2386,-155.1556 737.2015,-160.5484"/>
<polygon fill="#000000" stroke="#000000" points="736.9074,-164.0417 747.3002,-161.983 737.8919,-157.1113 736.9074,-164.0417"/>
</g>
<!-- eu.gcr.io/karhoo&#45;common/karhoo&#45;init&#45;google&#45;credentials:0.2.1 -->
<g id="node16" class="node">
<title>eu.gcr.io/karhoo&#45;common/karhoo&#45;init&#45;google&#45;credentials:0.2.1</title>
<polygon fill="none" stroke="#000000" points="1057.3156,-144 690.9481,-144 690.9481,-108 1057.3156,-108 1057.3156,-144"/>
<text text-anchor="middle" x="874.1318" y="-121.8" font-family="Times,serif" font-size="14.00" fill="#000000">eu.gcr.io/karhoo&#45;common/karhoo&#45;init&#45;google&#45;credentials:0.2.1</text>
</g>
<!-- eu.gcr.io/karhoo&#45;common/karhoo&#45;alpine:0.1.1&#45;&gt;eu.gcr.io/karhoo&#45;common/karhoo&#45;init&#45;google&#45;credentials:0.2.1 -->
<g id="edge12" class="edge">
<title>eu.gcr.io/karhoo&#45;common/karhoo&#45;alpine:0.1.1&#45;&gt;eu.gcr.io/karhoo&#45;common/karhoo&#45;init&#45;google&#45;credentials:0.2.1</title>
<path fill="none" stroke="#000000" d="M631.2341,-126C647.2605,-126 663.8313,-126 680.439,-126"/>
<polygon fill="#000000" stroke="#000000" points="680.7799,-129.5001 690.7798,-126 680.7798,-122.5001 680.7799,-129.5001"/>
</g>
<!-- eu.gcr.io/karhoo&#45;common/karhoo&#45;init&#45;kubeconfig:0.2.1 -->
<g id="node17" class="node">
<title>eu.gcr.io/karhoo&#45;common/karhoo&#45;init&#45;kubeconfig:0.2.1</title>
<polygon fill="none" stroke="#000000" points="1037.1293,-90 711.1344,-90 711.1344,-54 1037.1293,-54 1037.1293,-90"/>
<text text-anchor="middle" x="874.1318" y="-67.8" font-family="Times,serif" font-size="14.00" fill="#000000">eu.gcr.io/karhoo&#45;common/karhoo&#45;init&#45;kubeconfig:0.2.1</text>
</g>
<!-- eu.gcr.io/karhoo&#45;common/karhoo&#45;alpine:0.1.1&#45;&gt;eu.gcr.io/karhoo&#45;common/karhoo&#45;init&#45;kubeconfig:0.2.1 -->
<g id="edge13" class="edge">
<title>eu.gcr.io/karhoo&#45;common/karhoo&#45;alpine:0.1.1&#45;&gt;eu.gcr.io/karhoo&#45;common/karhoo&#45;init&#45;kubeconfig:0.2.1</title>
<path fill="none" stroke="#000000" d="M620.8403,-107.9813C658.2004,-102.6741 699.2386,-96.8444 737.2015,-91.4516"/>
<polygon fill="#000000" stroke="#000000" points="737.8919,-94.8887 747.3002,-90.017 736.9074,-87.9583 737.8919,-94.8887"/>
</g>
<!-- eu.gcr.io/karhoo&#45;common/karhoo&#45;vault&#45;unsealer:0.2.1 -->
<g id="node36" class="node">
<title>eu.gcr.io/karhoo&#45;common/karhoo&#45;vault&#45;unsealer:0.2.1</title>
<polygon fill="none" stroke="#000000" points="1033.881,-36 714.3827,-36 714.3827,0 1033.881,0 1033.881,-36"/>
<text text-anchor="middle" x="874.1318" y="-13.8" font-family="Times,serif" font-size="14.00" fill="#000000">eu.gcr.io/karhoo&#45;common/karhoo&#45;vault&#45;unsealer:0.2.1</text>
</g>
<!-- eu.gcr.io/karhoo&#45;common/karhoo&#45;alpine:0.1.1&#45;&gt;eu.gcr.io/karhoo&#45;common/karhoo&#45;vault&#45;unsealer:0.2.1 -->
<g id="edge23" class="edge">
<title>eu.gcr.io/karhoo&#45;common/karhoo&#45;alpine:0.1.1&#45;&gt;eu.gcr.io/karhoo&#45;common/karhoo&#45;vault&#45;unsealer:0.2.1</title>
<path fill="none" stroke="#000000" d="M538.1609,-107.822C596.1821,-83.9405 690.79,-45 690.79,-45 690.79,-45 712.9224,-41.7407 741.8077,-37.4868"/>
<polygon fill="#000000" stroke="#000000" points="742.4569,-40.9291 751.8402,-36.0094 741.4369,-34.0038 742.4569,-40.9291"/>
</g>
<!-- runmymind/docker&#45;android&#45;sdk:alpine&#45;standalone -->
<g id="node3" class="node">
<title>runmymind/docker&#45;android&#45;sdk:alpine&#45;standalone</title>
<polygon fill="none" stroke="#000000" points="297.3048,-225 -.1016,-225 -.1016,-189 297.3048,-189 297.3048,-225"/>
<text text-anchor="middle" x="148.6016" y="-202.8" font-family="Times,serif" font-size="14.00" fill="#000000">runmymind/docker&#45;android&#45;sdk:alpine&#45;standalone</text>
</g>
<!-- eu.gcr.io/karhoo&#45;common/karhoo&#45;android:0.1.0 -->
<g id="node4" class="node">
<title>eu.gcr.io/karhoo&#45;common/karhoo&#45;android:0.1.0</title>
<polygon fill="none" stroke="#000000" points="635.2145,-225 352.7787,-225 352.7787,-189 635.2145,-189 635.2145,-225"/>
<text text-anchor="middle" x="493.9966" y="-202.8" font-family="Times,serif" font-size="14.00" fill="#000000">eu.gcr.io/karhoo&#45;common/karhoo&#45;android:0.1.0</text>
</g>
<!-- runmymind/docker&#45;android&#45;sdk:alpine&#45;standalone&#45;&gt;eu.gcr.io/karhoo&#45;common/karhoo&#45;android:0.1.0 -->
<g id="edge2" class="edge">
<title>runmymind/docker&#45;android&#45;sdk:alpine&#45;standalone&#45;&gt;eu.gcr.io/karhoo&#45;common/karhoo&#45;android:0.1.0</title>
<path fill="none" stroke="#000000" d="M297.3354,-207C312.2548,-207 327.4175,-207 342.3665,-207"/>
<polygon fill="#000000" stroke="#000000" points="342.676,-210.5001 352.676,-207 342.676,-203.5001 342.676,-210.5001"/>
</g>
<!-- buildpack&#45;deps:stretch&#45;curl -->
<g id="node5" class="node">
<title>buildpack&#45;deps:stretch&#45;curl</title>
<polygon fill="none" stroke="#000000" points="233.2677,-306 63.9355,-306 63.9355,-270 233.2677,-270 233.2677,-306"/>
<text text-anchor="middle" x="148.6016" y="-283.8" font-family="Times,serif" font-size="14.00" fill="#000000">buildpack&#45;deps:stretch&#45;curl</text>
</g>
<!-- eu.gcr.io/karhoo&#45;common/karhoo&#45;base:0.4.2 -->
<g id="node6" class="node">
<title>eu.gcr.io/karhoo&#45;common/karhoo&#45;base:0.4.2</title>
<polygon fill="none" stroke="#000000" points="626.3248,-306 361.6684,-306 361.6684,-270 626.3248,-270 626.3248,-306"/>
<text text-anchor="middle" x="493.9966" y="-283.8" font-family="Times,serif" font-size="14.00" fill="#000000">eu.gcr.io/karhoo&#45;common/karhoo&#45;base:0.4.2</text>
</g>
<!-- buildpack&#45;deps:stretch&#45;curl&#45;&gt;eu.gcr.io/karhoo&#45;common/karhoo&#45;base:0.4.2 -->
<g id="edge3" class="edge">
<title>buildpack&#45;deps:stretch&#45;curl&#45;&gt;eu.gcr.io/karhoo&#45;common/karhoo&#45;base:0.4.2</title>
<path fill="none" stroke="#000000" d="M233.5371,-288C269.0756,-288 311.3674,-288 351.4273,-288"/>
<polygon fill="#000000" stroke="#000000" points="351.5585,-291.5001 361.5584,-288 351.5584,-284.5001 351.5585,-291.5001"/>
</g>
<!-- eu.gcr.io/karhoo&#45;common/karhoo&#45;golang:0.8.3 -->
<g id="node10" class="node">
<title>eu.gcr.io/karhoo&#45;common/karhoo&#45;golang:0.8.3</title>
<polygon fill="none" stroke="#000000" points="1013.1875,-306 735.0762,-306 735.0762,-270 1013.1875,-270 1013.1875,-306"/>
<text text-anchor="middle" x="874.1318" y="-283.8" font-family="Times,serif" font-size="14.00" fill="#000000">eu.gcr.io/karhoo&#45;common/karhoo&#45;golang:0.8.3</text>
</g>
<!-- eu.gcr.io/karhoo&#45;common/karhoo&#45;base:0.4.2&#45;&gt;eu.gcr.io/karhoo&#45;common/karhoo&#45;golang:0.8.3 -->
<g id="edge6" class="edge">
<title>eu.gcr.io/karhoo&#45;common/karhoo&#45;base:0.4.2&#45;&gt;eu.gcr.io/karhoo&#45;common/karhoo&#45;golang:0.8.3</title>
<path fill="none" stroke="#000000" d="M626.4158,-288C658.2618,-288 692.4927,-288 725.0405,-288"/>
<polygon fill="#000000" stroke="#000000" points="725.083,-291.5001 735.0829,-288 725.0829,-284.5001 725.083,-291.5001"/>
</g>
<!-- gcr.io/google&#45;containers/fluentd&#45;gcp:2.0.17 -->
<g id="node7" class="node">
<title>gcr.io/google&#45;containers/fluentd&#45;gcp:2.0.17</title>
<polygon fill="none" stroke="#000000" points="277.8331,-360 19.37,-360 19.37,-324 277.8331,-324 277.8331,-360"/>
<text text-anchor="middle" x="148.6016" y="-337.8" font-family="Times,serif" font-size="14.00" fill="#000000">gcr.io/google&#45;containers/fluentd&#45;gcp:2.0.17</text>
</g>
<!-- eu.gcr.io/karhoo&#45;common/karhoo&#45;fluentd:2.0.17&#45;1 -->
<g id="node8" class="node">
<title>eu.gcr.io/karhoo&#45;common/karhoo&#45;fluentd:2.0.17&#45;1</title>
<polygon fill="none" stroke="#000000" points="642.5009,-360 345.4923,-360 345.4923,-324 642.5009,-324 642.5009,-360"/>
<text text-anchor="middle" x="493.9966" y="-337.8" font-family="Times,serif" font-size="14.00" fill="#000000">eu.gcr.io/karhoo&#45;common/karhoo&#45;fluentd:2.0.17&#45;1</text>
</g>
<!-- gcr.io/google&#45;containers/fluentd&#45;gcp:2.0.17&#45;&gt;eu.gcr.io/karhoo&#45;common/karhoo&#45;fluentd:2.0.17&#45;1 -->
<g id="edge4" class="edge">
<title>gcr.io/google&#45;containers/fluentd&#45;gcp:2.0.17&#45;&gt;eu.gcr.io/karhoo&#45;common/karhoo&#45;fluentd:2.0.17&#45;1</title>
<path fill="none" stroke="#000000" d="M278.1966,-342C296.7752,-342 316.0648,-342 335.1282,-342"/>
<polygon fill="#000000" stroke="#000000" points="335.3793,-345.5001 345.3793,-342 335.3793,-338.5001 335.3793,-345.5001"/>
</g>
<!-- eu.gcr.io/karhoo&#45;common/karhoo&#45;golang&#45;api&#45;rest:0.5.7 -->
<g id="node11" class="node">
<title>eu.gcr.io/karhoo&#45;common/karhoo&#45;golang&#45;api&#45;rest:0.5.7</title>
<polygon fill="none" stroke="#000000" points="1418.0197,-360 1093.6249,-360 1093.6249,-324 1418.0197,-324 1418.0197,-360"/>
<text text-anchor="middle" x="1255.8223" y="-337.8" font-family="Times,serif" font-size="14.00" fill="#000000">eu.gcr.io/karhoo&#45;common/karhoo&#45;golang&#45;api&#45;rest:0.5.7</text>
</g>
<!-- eu.gcr.io/karhoo&#45;common/karhoo&#45;golang:0.8.3&#45;&gt;eu.gcr.io/karhoo&#45;common/karhoo&#45;golang&#45;api&#45;rest:0.5.7 -->
<g id="edge7" class="edge">
<title>eu.gcr.io/karhoo&#45;common/karhoo&#45;golang:0.8.3&#45;&gt;eu.gcr.io/karhoo&#45;common/karhoo&#45;golang&#45;api&#45;rest:0.5.7</title>
<path fill="none" stroke="#000000" d="M1001.4945,-306.0187C1039.0075,-311.3259 1080.2135,-317.1556 1118.3317,-322.5484"/>
<polygon fill="#000000" stroke="#000000" points="1118.0801,-326.0476 1128.4718,-323.983 1119.0607,-319.1166 1118.0801,-326.0476"/>
</g>
<!-- eu.gcr.io/karhoo&#45;common/karhoo&#45;golang&#45;mysql:0.5.3 -->
<g id="node12" class="node">
<title>eu.gcr.io/karhoo&#45;common/karhoo&#45;golang&#45;mysql:0.5.3</title>
<polygon fill="none" stroke="#000000" points="1414.2676,-306 1097.3769,-306 1097.3769,-270 1414.2676,-270 1414.2676,-306"/>
<text text-anchor="middle" x="1255.8223" y="-283.8" font-family="Times,serif" font-size="14.00" fill="#000000">eu.gcr.io/karhoo&#45;common/karhoo&#45;golang&#45;mysql:0.5.3</text>
</g>
<!-- eu.gcr.io/karhoo&#45;common/karhoo&#45;golang:0.8.3&#45;&gt;eu.gcr.io/karhoo&#45;common/karhoo&#45;golang&#45;mysql:0.5.3 -->
<g id="edge8" class="edge">
<title>eu.gcr.io/karhoo&#45;common/karhoo&#45;golang:0.8.3&#45;&gt;eu.gcr.io/karhoo&#45;common/karhoo&#45;golang&#45;mysql:0.5.3</title>
<path fill="none" stroke="#000000" d="M1013.2808,-288C1037.2496,-288 1062.3952,-288 1087.043,-288"/>
<polygon fill="#000000" stroke="#000000" points="1087.1982,-291.5001 1097.1981,-288 1087.1981,-284.5001 1087.1982,-291.5001"/>
</g>
<!-- eu.gcr.io/karhoo&#45;common/karhoo&#45;golang&#45;tile38:0.4.3 -->
<g id="node14" class="node">
<title>eu.gcr.io/karhoo&#45;common/karhoo&#45;golang&#45;tile38:0.4.3</title>
<polygon fill="none" stroke="#000000" points="1412.9231,-252 1098.7214,-252 1098.7214,-216 1412.9231,-216 1412.9231,-252"/>
<text text-anchor="middle" x="1255.8223" y="-229.8" font-family="Times,serif" font-size="14.00" fill="#000000">eu.gcr.io/karhoo&#45;common/karhoo&#45;golang&#45;tile38:0.4.3</text>
</g>
<!-- eu.gcr.io/karhoo&#45;common/karhoo&#45;golang:0.8.3&#45;&gt;eu.gcr.io/karhoo&#45;common/karhoo&#45;golang&#45;tile38:0.4.3 -->
<g id="edge10" class="edge">
<title>eu.gcr.io/karhoo&#45;common/karhoo&#45;golang:0.8.3&#45;&gt;eu.gcr.io/karhoo&#45;common/karhoo&#45;golang&#45;tile38:0.4.3</title>
<path fill="none" stroke="#000000" d="M1001.4945,-269.9813C1039.0075,-264.6741 1080.2135,-258.8444 1118.3317,-253.4516"/>
<polygon fill="#000000" stroke="#000000" points="1119.0607,-256.8834 1128.4718,-252.017 1118.0801,-249.9524 1119.0607,-256.8834"/>
</g>
<!-- eu.gcr.io/karhoo&#45;common/karhoo&#45;golang&#45;mysql&#45;bigtable:0.5.3 -->
<g id="node13" class="node">
<title>eu.gcr.io/karhoo&#45;common/karhoo&#45;golang&#45;mysql&#45;bigtable:0.5.3</title>
<polygon fill="none" stroke="#000000" points="1820.7272,-306 1454.3187,-306 1454.3187,-270 1820.7272,-270 1820.7272,-306"/>
<text text-anchor="middle" x="1637.5229" y="-283.8" font-family="Times,serif" font-size="14.00" fill="#000000">eu.gcr.io/karhoo&#45;common/karhoo&#45;golang&#45;mysql&#45;bigtable:0.5.3</text>
</g>
<!-- eu.gcr.io/karhoo&#45;common/karhoo&#45;golang&#45;mysql:0.5.3&#45;&gt;eu.gcr.io/karhoo&#45;common/karhoo&#45;golang&#45;mysql&#45;bigtable:0.5.3 -->
<g id="edge9" class="edge">
<title>eu.gcr.io/karhoo&#45;common/karhoo&#45;golang&#45;mysql:0.5.3&#45;&gt;eu.gcr.io/karhoo&#45;common/karhoo&#45;golang&#45;mysql&#45;bigtable:0.5.3</title>
<path fill="none" stroke="#000000" d="M1414.3817,-288C1424.111,-288 1433.9556,-288 1443.8104,-288"/>
<polygon fill="#000000" stroke="#000000" points="1444.0795,-291.5001 1454.0795,-288 1444.0794,-284.5001 1444.0795,-291.5001"/>
</g>
<!-- openjdk:8&#45;jdk&#45;alpine -->
<g id="node18" class="node">
<title>openjdk:8&#45;jdk&#45;alpine</title>
<polygon fill="none" stroke="#000000" points="215.5163,-414 81.6869,-414 81.6869,-378 215.5163,-378 215.5163,-414"/>
<text text-anchor="middle" x="148.6016" y="-391.8" font-family="Times,serif" font-size="14.00" fill="#000000">openjdk:8&#45;jdk&#45;alpine</text>
</g>
<!-- eu.gcr.io/karhoo&#45;common/karhoo&#45;java:0.1.0 -->
<g id="node19" class="node">
<title>eu.gcr.io/karhoo&#45;common/karhoo&#45;java:0.1.0</title>
<polygon fill="none" stroke="#000000" points="625.7663,-414 362.2269,-414 362.2269,-378 625.7663,-378 625.7663,-414"/>
<text text-anchor="middle" x="493.9966" y="-391.8" font-family="Times,serif" font-size="14.00" fill="#000000">eu.gcr.io/karhoo&#45;common/karhoo&#45;java:0.1.0</text>
</g>
<!-- openjdk:8&#45;jdk&#45;alpine&#45;&gt;eu.gcr.io/karhoo&#45;common/karhoo&#45;java:0.1.0 -->
<g id="edge14" class="edge">
<title>openjdk:8&#45;jdk&#45;alpine&#45;&gt;eu.gcr.io/karhoo&#45;common/karhoo&#45;java:0.1.0</title>
<path fill="none" stroke="#000000" d="M215.6067,-396C254.4345,-396 304.844,-396 352.0789,-396"/>
<polygon fill="#000000" stroke="#000000" points="352.1048,-399.5001 362.1048,-396 352.1048,-392.5001 352.1048,-399.5001"/>
</g>
<!-- jenkins/jenkins:2.135&#45;slim -->
<g id="node20" class="node">
<title>jenkins/jenkins:2.135&#45;slim</title>
<polygon fill="none" stroke="#000000" points="231.043,-468 66.1601,-468 66.1601,-432 231.043,-432 231.043,-468"/>
<text text-anchor="middle" x="148.6016" y="-445.8" font-family="Times,serif" font-size="14.00" fill="#000000">jenkins/jenkins:2.135&#45;slim</text>
</g>
<!-- eu.gcr.io/karhoo&#45;common/karhoo&#45;jenkins:2.135&#45;1 -->
<g id="node21" class="node">
<title>eu.gcr.io/karhoo&#45;common/karhoo&#45;jenkins:2.135&#45;1</title>
<polygon fill="none" stroke="#000000" points="641.5526,-468 346.4406,-468 346.4406,-432 641.5526,-432 641.5526,-468"/>
<text text-anchor="middle" x="493.9966" y="-445.8" font-family="Times,serif" font-size="14.00" fill="#000000">eu.gcr.io/karhoo&#45;common/karhoo&#45;jenkins:2.135&#45;1</text>
</g>
<!-- jenkins/jenkins:2.135&#45;slim&#45;&gt;eu.gcr.io/karhoo&#45;common/karhoo&#45;jenkins:2.135&#45;1 -->
<g id="edge15" class="edge">
<title>jenkins/jenkins:2.135&#45;slim&#45;&gt;eu.gcr.io/karhoo&#45;common/karhoo&#45;jenkins:2.135&#45;1</title>
<path fill="none" stroke="#000000" d="M231.3323,-450C262.8915,-450 300.012,-450 336.2482,-450"/>
<polygon fill="#000000" stroke="#000000" points="336.4398,-453.5001 346.4398,-450 336.4398,-446.5001 336.4398,-453.5001"/>
</g>
<!-- alpine:3.5 -->
<g id="node22" class="node">
<title>alpine:3.5</title>
<polygon fill="none" stroke="#000000" points="184.1994,-522 113.0038,-522 113.0038,-486 184.1994,-486 184.1994,-522"/>
<text text-anchor="middle" x="148.6016" y="-499.8" font-family="Times,serif" font-size="14.00" fill="#000000">alpine:3.5</text>
</g>
<!-- eu.gcr.io/karhoo&#45;common/karhoo&#45;npm: -->
<g id="node23" class="node">
<title>eu.gcr.io/karhoo&#45;common/karhoo&#45;npm:</title>
<polygon fill="none" stroke="#000000" points="612.3384,-522 375.6547,-522 375.6547,-486 612.3384,-486 612.3384,-522"/>
<text text-anchor="middle" x="493.9966" y="-499.8" font-family="Times,serif" font-size="14.00" fill="#000000">eu.gcr.io/karhoo&#45;common/karhoo&#45;npm:</text>
</g>
<!-- alpine:3.5&#45;&gt;eu.gcr.io/karhoo&#45;common/karhoo&#45;npm: -->
<g id="edge16" class="edge">
<title>alpine:3.5&#45;&gt;eu.gcr.io/karhoo&#45;common/karhoo&#45;npm:</title>
<path fill="none" stroke="#000000" d="M184.264,-504C226.8017,-504 300.2967,-504 365.0211,-504"/>
<polygon fill="#000000" stroke="#000000" points="365.3276,-507.5001 375.3276,-504 365.3275,-500.5001 365.3276,-507.5001"/>
</g>
<!-- ubuntu:16.04 -->
<g id="node24" class="node">
<title>ubuntu:16.04</title>
<polygon fill="none" stroke="#000000" points="193.8813,-576 103.3218,-576 103.3218,-540 193.8813,-540 193.8813,-576"/>
<text text-anchor="middle" x="148.6016" y="-553.8" font-family="Times,serif" font-size="14.00" fill="#000000">ubuntu:16.04</text>
</g>
<!-- eu.gcr.io/karhoo&#45;common/karhoo&#45;oracle&#45;java8:0.1.0 -->
<g id="node25" class="node">
<title>eu.gcr.io/karhoo&#45;common/karhoo&#45;oracle&#45;java8:0.1.0</title>
<polygon fill="none" stroke="#000000" points="648.6216,-576 339.3716,-576 339.3716,-540 648.6216,-540 648.6216,-576"/>
<text text-anchor="middle" x="493.9966" y="-553.8" font-family="Times,serif" font-size="14.00" fill="#000000">eu.gcr.io/karhoo&#45;common/karhoo&#45;oracle&#45;java8:0.1.0</text>
</g>
<!-- ubuntu:16.04&#45;&gt;eu.gcr.io/karhoo&#45;common/karhoo&#45;oracle&#45;java8:0.1.0 -->
<g id="edge17" class="edge">
<title>ubuntu:16.04&#45;&gt;eu.gcr.io/karhoo&#45;common/karhoo&#45;oracle&#45;java8:0.1.0</title>
<path fill="none" stroke="#000000" d="M193.7559,-558C228.6547,-558 279.2537,-558 328.9991,-558"/>
<polygon fill="#000000" stroke="#000000" points="329.263,-561.5001 339.263,-558 329.2629,-554.5001 329.263,-561.5001"/>
</g>
<!-- python:2.7.14&#45;slim -->
<g id="node26" class="node">
<title>python:2.7.14&#45;slim</title>
<polygon fill="none" stroke="#000000" points="209.6609,-630 87.5422,-630 87.5422,-594 209.6609,-594 209.6609,-630"/>
<text text-anchor="middle" x="148.6016" y="-607.8" font-family="Times,serif" font-size="14.00" fill="#000000">python:2.7.14&#45;slim</text>
</g>
<!-- eu.gcr.io/karhoo&#45;common/karhoo&#45;python2:0.2.4 -->
<g id="node27" class="node">
<title>eu.gcr.io/karhoo&#45;common/karhoo&#45;python2:0.2.4</title>
<polygon fill="none" stroke="#000000" points="636.8384,-630 351.1547,-630 351.1547,-594 636.8384,-594 636.8384,-630"/>
<text text-anchor="middle" x="493.9966" y="-607.8" font-family="Times,serif" font-size="14.00" fill="#000000">eu.gcr.io/karhoo&#45;common/karhoo&#45;python2:0.2.4</text>
</g>
<!-- python:2.7.14&#45;slim&#45;&gt;eu.gcr.io/karhoo&#45;common/karhoo&#45;python2:0.2.4 -->
<g id="edge18" class="edge">
<title>python:2.7.14&#45;slim&#45;&gt;eu.gcr.io/karhoo&#45;common/karhoo&#45;python2:0.2.4</title>
<path fill="none" stroke="#000000" d="M209.9533,-612C246.525,-612 294.7104,-612 340.9853,-612"/>
<polygon fill="#000000" stroke="#000000" points="341.1355,-615.5001 351.1355,-612 341.1354,-608.5001 341.1355,-615.5001"/>
</g>
<!-- python:3.6.5&#45;slim -->
<g id="node28" class="node">
<title>python:3.6.5&#45;slim</title>
<polygon fill="none" stroke="#000000" points="206.161,-684 91.0421,-684 91.0421,-648 206.161,-648 206.161,-684"/>
<text text-anchor="middle" x="148.6016" y="-661.8" font-family="Times,serif" font-size="14.00" fill="#000000">python:3.6.5&#45;slim</text>
</g>
<!-- eu.gcr.io/karhoo&#45;common/karhoo&#45;python3:0.2.4 -->
<g id="node29" class="node">
<title>eu.gcr.io/karhoo&#45;common/karhoo&#45;python3:0.2.4</title>
<polygon fill="none" stroke="#000000" points="636.8384,-684 351.1547,-684 351.1547,-648 636.8384,-648 636.8384,-684"/>
<text text-anchor="middle" x="493.9966" y="-661.8" font-family="Times,serif" font-size="14.00" fill="#000000">eu.gcr.io/karhoo&#45;common/karhoo&#45;python3:0.2.4</text>
</g>
<!-- python:3.6.5&#45;slim&#45;&gt;eu.gcr.io/karhoo&#45;common/karhoo&#45;python3:0.2.4 -->
<g id="edge19" class="edge">
<title>python:3.6.5&#45;slim&#45;&gt;eu.gcr.io/karhoo&#45;common/karhoo&#45;python3:0.2.4</title>
<path fill="none" stroke="#000000" d="M206.4129,-666C243.3465,-666 293.1102,-666 340.8542,-666"/>
<polygon fill="#000000" stroke="#000000" points="341.0063,-669.5001 351.0063,-666 341.0062,-662.5001 341.0063,-669.5001"/>
</g>
<!-- scratch -->
<g id="node30" class="node">
<title>scratch</title>
<polygon fill="none" stroke="#000000" points="176.2443,-738 120.9588,-738 120.9588,-702 176.2443,-702 176.2443,-738"/>
<text text-anchor="middle" x="148.6016" y="-715.8" font-family="Times,serif" font-size="14.00" fill="#000000">scratch</text>
</g>
<!-- eu.gcr.io/karhoo&#45;common/karhoo&#45;scratch:0.0.1 -->
<g id="node31" class="node">
<title>eu.gcr.io/karhoo&#45;common/karhoo&#45;scratch:0.0.1</title>
<polygon fill="none" stroke="#000000" points="633.5906,-738 354.4025,-738 354.4025,-702 633.5906,-702 633.5906,-738"/>
<text text-anchor="middle" x="493.9966" y="-715.8" font-family="Times,serif" font-size="14.00" fill="#000000">eu.gcr.io/karhoo&#45;common/karhoo&#45;scratch:0.0.1</text>
</g>
<!-- scratch&#45;&gt;eu.gcr.io/karhoo&#45;common/karhoo&#45;scratch:0.0.1 -->
<g id="edge20" class="edge">
<title>scratch&#45;&gt;eu.gcr.io/karhoo&#45;common/karhoo&#45;scratch:0.0.1</title>
<path fill="none" stroke="#000000" d="M176.2828,-720C212.979,-720 280.5042,-720 343.8963,-720"/>
<polygon fill="#000000" stroke="#000000" points="344.0296,-723.5001 354.0295,-720 344.0295,-716.5001 344.0296,-723.5001"/>
</g>
<!-- eu.gcr.io/karhoo&#45;common/caddy:latest -->
<g id="node32" class="node">
<title>eu.gcr.io/karhoo&#45;common/caddy:latest</title>
<polygon fill="none" stroke="#000000" points="264.4886,-792 32.7145,-792 32.7145,-756 264.4886,-756 264.4886,-792"/>
<text text-anchor="middle" x="148.6016" y="-769.8" font-family="Times,serif" font-size="14.00" fill="#000000">eu.gcr.io/karhoo&#45;common/caddy:latest</text>
</g>
<!-- eu.gcr.io/karhoo&#45;common/karhoo&#45;testkube&#45;agent:0.1.0 -->
<g id="node33" class="node">
<title>eu.gcr.io/karhoo&#45;common/karhoo&#45;testkube&#45;agent:0.1.0</title>
<polygon fill="none" stroke="#000000" points="654.5838,-792 333.4094,-792 333.4094,-756 654.5838,-756 654.5838,-792"/>
<text text-anchor="middle" x="493.9966" y="-769.8" font-family="Times,serif" font-size="14.00" fill="#000000">eu.gcr.io/karhoo&#45;common/karhoo&#45;testkube&#45;agent:0.1.0</text>
</g>
<!-- eu.gcr.io/karhoo&#45;common/caddy:latest&#45;&gt;eu.gcr.io/karhoo&#45;common/karhoo&#45;testkube&#45;agent:0.1.0 -->
<g id="edge21" class="edge">
<title>eu.gcr.io/karhoo&#45;common/caddy:latest&#45;&gt;eu.gcr.io/karhoo&#45;common/karhoo&#45;testkube&#45;agent:0.1.0</title>
<path fill="none" stroke="#000000" d="M264.574,-774C283.4349,-774 303.3114,-774 323.1552,-774"/>
<polygon fill="#000000" stroke="#000000" points="323.2052,-777.5001 333.2052,-774 323.2052,-770.5001 323.2052,-777.5001"/>
</g>
<!-- gcr.io/google_containers/ubuntu&#45;slim:0.4 -->
<g id="node34" class="node">
<title>gcr.io/google_containers/ubuntu&#45;slim:0.4</title>
<polygon fill="none" stroke="#000000" points="272.0742,-846 25.1289,-846 25.1289,-810 272.0742,-810 272.0742,-846"/>
<text text-anchor="middle" x="148.6016" y="-823.8" font-family="Times,serif" font-size="14.00" fill="#000000">gcr.io/google_containers/ubuntu&#45;slim:0.4</text>
</g>
<!-- eu.gcr.io/karhoo&#45;common/karhoo&#45;utils: -->
<g id="node35" class="node">
<title>eu.gcr.io/karhoo&#45;common/karhoo&#45;utils:</title>
<polygon fill="none" stroke="#000000" points="612.0659,-846 375.9272,-846 375.9272,-810 612.0659,-810 612.0659,-846"/>
<text text-anchor="middle" x="493.9966" y="-823.8" font-family="Times,serif" font-size="14.00" fill="#000000">eu.gcr.io/karhoo&#45;common/karhoo&#45;utils:</text>
</g>
<!-- gcr.io/google_containers/ubuntu&#45;slim:0.4&#45;&gt;eu.gcr.io/karhoo&#45;common/karhoo&#45;utils: -->
<g id="edge22" class="edge">
<title>gcr.io/google_containers/ubuntu&#45;slim:0.4&#45;&gt;eu.gcr.io/karhoo&#45;common/karhoo&#45;utils:</title>
<path fill="none" stroke="#000000" d="M272.3215,-828C302.5818,-828 335.0292,-828 365.5071,-828"/>
<polygon fill="#000000" stroke="#000000" points="365.7616,-831.5001 375.7616,-828 365.7616,-824.5001 365.7616,-831.5001"/>
</g>
</g>
</svg>
