<?xml version="1.0" encoding="UTF-8" standalone="no"?>
<!DOCTYPE svg PUBLIC "-//W3C//DTD SVG 1.1//EN"
 "http://www.w3.org/Graphics/SVG/1.1/DTD/svg11.dtd">
<!-- Generated by graphviz version 2.40.1 (20161225.0304)
 -->
<!-- Title: G Pages: 1 -->
<svg width="350pt" height="188pt"
 viewBox="0.00 0.00 350.00 188.00" xmlns="http://www.w3.org/2000/svg" xmlns:xlink="http://www.w3.org/1999/xlink">
<g id="graph0" class="graph" transform="scale(1 1) rotate(0) translate(4 184)">
<title>G</title>
<polygon fill="#ffffff" stroke="transparent" points="-4,4 -4,-184 346,-184 346,4 -4,4"/>
<!-- a -->
<g id="node1" class="node">
<title>a</title>
<ellipse fill="none" stroke="#000000" cx="171" cy="-162" rx="27" ry="18"/>
<text text-anchor="middle" x="171" y="-157.8" font-family="Times,serif" font-size="14.00" fill="#000000">a</text>
</g>
<!-- ab -->
<g id="node2" class="node">
<title>ab</title>
<ellipse fill="none" stroke="#000000" cx="27" cy="-90" rx="27" ry="18"/>
<text text-anchor="middle" x="27" y="-85.8" font-family="Times,serif" font-size="14.00" fill="#000000">ab</text>
</g>
<!-- a&#45;&gt;ab -->
<g id="edge1" class="edge">
<title>a&#45;&gt;ab</title>
<path fill="none" stroke="#000000" d="M149.1295,-151.0647C124.7778,-138.8889 85.238,-119.119 57.7715,-105.3858"/>
<polygon fill="#000000" stroke="#000000" points="59.114,-102.1439 48.6045,-100.8022 55.9835,-108.4049 59.114,-102.1439"/>
</g>
<!-- ac -->
<g id="node3" class="node">
<title>ac</title>
<ellipse fill="none" stroke="#000000" cx="99" cy="-90" rx="27" ry="18"/>
<text text-anchor="middle" x="99" y="-85.8" font-family="Times,serif" font-size="14.00" fill="#000000">ac</text>
</g>
<!-- a&#45;&gt;ac -->
<g id="edge2" class="edge">
<title>a&#45;&gt;ac</title>
<path fill="none" stroke="#000000" d="M155.7307,-146.7307C145.803,-136.803 132.6847,-123.6847 121.5637,-112.5637"/>
<polygon fill="#000000" stroke="#000000" points="123.7933,-109.8436 114.2473,-105.2473 118.8436,-114.7933 123.7933,-109.8436"/>
</g>
<!-- ad -->
<g id="node4" class="node">
<title>ad</title>
<ellipse fill="none" stroke="#000000" cx="171" cy="-90" rx="27" ry="18"/>
<text text-anchor="middle" x="171" y="-85.8" font-family="Times,serif" font-size="14.00" fill="#000000">ad</text>
</g>
<!-- a&#45;&gt;ad -->
<g id="edge3" class="edge">
<title>a&#45;&gt;ad</title>
<path fill="none" stroke="#000000" d="M171,-143.8314C171,-136.131 171,-126.9743 171,-118.4166"/>
<polygon fill="#000000" stroke="#000000" points="174.5001,-118.4132 171,-108.4133 167.5001,-118.4133 174.5001,-118.4132"/>
</g>
<!-- ae -->
<g id="node5" class="node">
<title>ae</title>
<ellipse fill="none" stroke="#000000" cx="243" cy="-90" rx="27" ry="18"/>
<text text-anchor="middle" x="243" y="-85.8" font-family="Times,serif" font-size="14.00" fill="#000000">ae</text>
</g>
<!-- a&#45;&gt;ae -->
<g id="edge4" class="edge">
<title>a&#45;&gt;ae</title>
<path fill="none" stroke="#000000" d="M186.2693,-146.7307C196.197,-136.803 209.3153,-123.6847 220.4363,-112.5637"/>
<polygon fill="#000000" stroke="#000000" points="223.1564,-114.7933 227.7527,-105.2473 218.2067,-109.8436 223.1564,-114.7933"/>
</g>
<!-- af -->
<g id="node6" class="node">
<title>af</title>
<ellipse fill="none" stroke="#000000" cx="315" cy="-90" rx="27" ry="18"/>
<text text-anchor="middle" x="315" y="-85.8" font-family="Times,serif" font-size="14.00" fill="#000000">af</text>
</g>
<!-- a&#45;&gt;af -->
<g id="edge5" class="edge">
<title>a&#45;&gt;af</title>
<path fill="none" stroke="#000000" d="M192.8705,-151.0647C217.2222,-138.8889 256.762,-119.119 284.2285,-105.3858"/>
<polygon fill="#000000" stroke="#000000" points="286.0165,-108.4049 293.3955,-100.8022 282.886,-102.1439 286.0165,-108.4049"/>
</g>
<!-- abz -->
<g id="node7" class="node">
<title>abz</title>
<ellipse fill="none" stroke="#000000" cx="27" cy="-18" rx="27" ry="18"/>
<text text-anchor="middle" x="27" y="-13.8" font-family="Times,serif" font-size="14.00" fill="#000000">abz</text>
</g>
<!-- ab&#45;&gt;abz -->
<g id="edge6" class="edge">
<title>ab&#45;&gt;abz</title>
<path fill="none" stroke="#000000" d="M27,-71.8314C27,-64.131 27,-54.9743 27,-46.4166"/>
<polygon fill="#000000" stroke="#000000" points="30.5001,-46.4132 27,-36.4133 23.5001,-46.4133 30.5001,-46.4132"/>
</g>
</g>
</svg>
