<?xml version="1.0" encoding="UTF-8" standalone="no"?>
<!DOCTYPE svg PUBLIC "-//W3C//DTD SVG 1.1//EN"
 "http://www.w3.org/Graphics/SVG/1.1/DTD/svg11.dtd">
<!-- Generated by graphviz version 2.40.1 (20161225.0304)
 -->
<!-- Title: G Pages: 1 -->
<svg width="909pt" height="98pt"
 viewBox="0.00 0.00 908.51 98.00" xmlns="http://www.w3.org/2000/svg" xmlns:xlink="http://www.w3.org/1999/xlink">
<g id="graph0" class="graph" transform="scale(1 1) rotate(0) translate(4 94)">
<title>G</title>
<polygon fill="#ffffff" stroke="transparent" points="-4,4 -4,-94 904.5059,-94 904.5059,4 -4,4"/>
<!-- eu.gcr.io/karhoo&#45;common/test_ab:2.0.8 -->
<g id="node1" class="node">
<title>eu.gcr.io/karhoo&#45;common/test_ab:2.0.8</title>
<polygon fill="none" stroke="#000000" points="618.3643,-90 382.2256,-90 382.2256,-54 618.3643,-54 618.3643,-90"/>
<text text-anchor="middle" x="500.2949" y="-67.8" font-family="Times,serif" font-size="14.00" fill="#000000">eu.gcr.io/karhoo&#45;common/test_ab:2.0.8</text>
</g>
<!-- eu.gcr.io/karhoo&#45;common/test_abd:2.0.8 -->
<g id="node2" class="node">
<title>eu.gcr.io/karhoo&#45;common/test_abd:2.0.8</title>
<polygon fill="none" stroke="#000000" points="900.5405,-90 657.4018,-90 657.4018,-54 900.5405,-54 900.5405,-90"/>
<text text-anchor="middle" x="778.9712" y="-67.8" font-family="Times,serif" font-size="14.00" fill="#000000">eu.gcr.io/karhoo&#45;common/test_abd:2.0.8</text>
</g>
<!-- eu.gcr.io/karhoo&#45;common/test_ab:2.0.8&#45;&gt;eu.gcr.io/karhoo&#45;common/test_abd:2.0.8 -->
<g id="edge1" class="edge">
<title>eu.gcr.io/karhoo&#45;common/test_ab:2.0.8&#45;&gt;eu.gcr.io/karhoo&#45;common/test_abd:2.0.8</title>
<path fill="none" stroke="#000000" d="M618.4787,-72C618.4787,-72 647.0375,-72 647.0375,-72"/>
<polygon fill="#000000" stroke="#000000" points="647.0375,-75.5001 657.0375,-72 647.0374,-68.5001 647.0375,-75.5001"/>
</g>
<!-- eu.gcr.io/karhoo&#45;common/test_a:2.0.11 -->
<g id="node3" class="node">
<title>eu.gcr.io/karhoo&#45;common/test_a:2.0.11</title>
<polygon fill="none" stroke="#000000" points="342.9321,-63 107.8179,-63 107.8179,-27 342.9321,-27 342.9321,-63"/>
<text text-anchor="middle" x="225.375" y="-40.8" font-family="Times,serif" font-size="14.00" fill="#000000">eu.gcr.io/karhoo&#45;common/test_a:2.0.11</text>
</g>
<!-- eu.gcr.io/karhoo&#45;common/test_a:2.0.11&#45;&gt;eu.gcr.io/karhoo&#45;common/test_ab:2.0.8 -->
<g id="edge4" class="edge">
<title>eu.gcr.io/karhoo&#45;common/test_a:2.0.11&#45;&gt;eu.gcr.io/karhoo&#45;common/test_ab:2.0.8</title>
<path fill="none" stroke="#000000" d="M343.1622,-58.5C343.1622,-58.5 371.8778,-58.5 371.8778,-58.5"/>
<polygon fill="#000000" stroke="#000000" points="371.8779,-62.0001 381.8778,-58.5 371.8778,-55.0001 371.8779,-62.0001"/>
</g>
<!-- eu.gcr.io/karhoo&#45;common/test_ac:2.0.10 -->
<g id="node4" class="node">
<title>eu.gcr.io/karhoo&#45;common/test_ac:2.0.10</title>
<polygon fill="none" stroke="#000000" points="621.5783,-36 379.0116,-36 379.0116,0 621.5783,0 621.5783,-36"/>
<text text-anchor="middle" x="500.2949" y="-13.8" font-family="Times,serif" font-size="14.00" fill="#000000">eu.gcr.io/karhoo&#45;common/test_ac:2.0.10</text>
</g>
<!-- eu.gcr.io/karhoo&#45;common/test_a:2.0.11&#45;&gt;eu.gcr.io/karhoo&#45;common/test_ac:2.0.10 -->
<g id="edge2" class="edge">
<title>eu.gcr.io/karhoo&#45;common/test_a:2.0.11&#45;&gt;eu.gcr.io/karhoo&#45;common/test_ac:2.0.10</title>
<path fill="none" stroke="#000000" d="M343.1622,-31.5C343.1622,-31.5 368.8115,-31.5 368.8115,-31.5"/>
<polygon fill="#000000" stroke="#000000" points="368.8115,-35.0001 378.8115,-31.5 368.8115,-28.0001 368.8115,-35.0001"/>
</g>
<!-- alpine:3.7 -->
<g id="node5" class="node">
<title>alpine:3.7</title>
<polygon fill="none" stroke="#000000" points="71.3961,-63 .2005,-63 .2005,-27 71.3961,-27 71.3961,-63"/>
<text text-anchor="middle" x="35.7983" y="-40.8" font-family="Times,serif" font-size="14.00" fill="#000000">alpine:3.7</text>
</g>
<!-- alpine:3.7&#45;&gt;eu.gcr.io/karhoo&#45;common/test_a:2.0.11 -->
<g id="edge3" class="edge">
<title>alpine:3.7&#45;&gt;eu.gcr.io/karhoo&#45;common/test_a:2.0.11</title>
<path fill="none" stroke="#000000" d="M71.4563,-45C71.4563,-45 97.6127,-45 97.6127,-45"/>
<polygon fill="#000000" stroke="#000000" points="97.6128,-48.5001 107.6127,-45 97.6127,-41.5001 97.6128,-48.5001"/>
</g>
</g>
</svg>
