<?xml version="1.0" encoding="UTF-8" standalone="no"?>
<!DOCTYPE svg PUBLIC "-//W3C//DTD SVG 1.1//EN"
 "http://www.w3.org/Graphics/SVG/1.1/DTD/svg11.dtd">
<!-- Generated by graphviz version 2.40.1 (20161225.0304)
 -->
<!-- Title: G Pages: 1 -->
<svg width="801pt" height="98pt"
 viewBox="0.00 0.00 800.53 98.00" xmlns="http://www.w3.org/2000/svg" xmlns:xlink="http://www.w3.org/1999/xlink">
<g id="graph0" class="graph" transform="scale(1 1) rotate(0) translate(4 94)">
<title>G</title>
<polygon fill="#ffffff" stroke="transparent" points="-4,4 -4,-94 796.5254,-94 796.5254,4 -4,4"/>
<!-- scratch -->
<g id="node1" class="node">
<title>scratch</title>
<polygon fill="none" stroke="#000000" points="55.4635,-63 .1781,-63 .1781,-27 55.4635,-27 55.4635,-63"/>
<text text-anchor="middle" x="27.8208" y="-40.8" font-family="Times,serif" font-size="14.00" fill="#000000">scratch</text>
</g>
<!-- eu.gcr.io/karhoo&#45;common/a:1.2.3 -->
<g id="node2" class="node">
<title>eu.gcr.io/karhoo&#45;common/a:1.2.3</title>
<polygon fill="none" stroke="#000000" points="294.0838,-63 91.8273,-63 91.8273,-27 294.0838,-27 294.0838,-63"/>
<text text-anchor="middle" x="192.9556" y="-40.8" font-family="Times,serif" font-size="14.00" fill="#000000">eu.gcr.io/karhoo&#45;common/a:1.2.3</text>
</g>
<!-- scratch&#45;&gt;eu.gcr.io/karhoo&#45;common/a:1.2.3 -->
<g id="edge1" class="edge">
<title>scratch&#45;&gt;eu.gcr.io/karhoo&#45;common/a:1.2.3</title>
<path fill="none" stroke="#000000" d="M55.8337,-45C55.8337,-45 81.5186,-45 81.5186,-45"/>
<polygon fill="#000000" stroke="#000000" points="81.5186,-48.5001 91.5186,-45 81.5185,-41.5001 81.5186,-48.5001"/>
</g>
<!-- eu.gcr.io/karhoo&#45;common/ab:1.2.3 -->
<g id="node3" class="node">
<title>eu.gcr.io/karhoo&#45;common/ab:1.2.3</title>
<polygon fill="none" stroke="#000000" points="539.7118,-90 330.4552,-90 330.4552,-54 539.7118,-54 539.7118,-90"/>
<text text-anchor="middle" x="435.0835" y="-67.8" font-family="Times,serif" font-size="14.00" fill="#000000">eu.gcr.io/karhoo&#45;common/ab:1.2.3</text>
</g>
<!-- eu.gcr.io/karhoo&#45;common/a:1.2.3&#45;&gt;eu.gcr.io/karhoo&#45;common/ab:1.2.3 -->
<g id="edge2" class="edge">
<title>eu.gcr.io/karhoo&#45;common/a:1.2.3&#45;&gt;eu.gcr.io/karhoo&#45;common/ab:1.2.3</title>
<path fill="none" stroke="#000000" d="M294.2367,-58.5C294.2367,-58.5 320.3129,-58.5 320.3129,-58.5"/>
<polygon fill="#000000" stroke="#000000" points="320.3129,-62.0001 330.3129,-58.5 320.3128,-55.0001 320.3129,-62.0001"/>
</g>
<!-- eu.gcr.io/karhoo&#45;common/ac:1.2.3 -->
<g id="node5" class="node">
<title>eu.gcr.io/karhoo&#45;common/ac:1.2.3</title>
<polygon fill="none" stroke="#000000" points="539.4254,-36 330.7416,-36 330.7416,0 539.4254,0 539.4254,-36"/>
<text text-anchor="middle" x="435.0835" y="-13.8" font-family="Times,serif" font-size="14.00" fill="#000000">eu.gcr.io/karhoo&#45;common/ac:1.2.3</text>
</g>
<!-- eu.gcr.io/karhoo&#45;common/a:1.2.3&#45;&gt;eu.gcr.io/karhoo&#45;common/ac:1.2.3 -->
<g id="edge4" class="edge">
<title>eu.gcr.io/karhoo&#45;common/a:1.2.3&#45;&gt;eu.gcr.io/karhoo&#45;common/ac:1.2.3</title>
<path fill="none" stroke="#000000" d="M294.2367,-31.5C294.2367,-31.5 320.7031,-31.5 320.7031,-31.5"/>
<polygon fill="#000000" stroke="#000000" points="320.7031,-35.0001 330.7031,-31.5 320.7031,-28.0001 320.7031,-35.0001"/>
</g>
<!-- eu.gcr.io/karhoo&#45;common/abd:1.2.3 -->
<g id="node4" class="node">
<title>eu.gcr.io/karhoo&#45;common/abd:1.2.3</title>
<polygon fill="none" stroke="#000000" points="792.3397,-90 576.0832,-90 576.0832,-54 792.3397,-54 792.3397,-90"/>
<text text-anchor="middle" x="684.2114" y="-67.8" font-family="Times,serif" font-size="14.00" fill="#000000">eu.gcr.io/karhoo&#45;common/abd:1.2.3</text>
</g>
<!-- eu.gcr.io/karhoo&#45;common/ab:1.2.3&#45;&gt;eu.gcr.io/karhoo&#45;common/abd:1.2.3 -->
<g id="edge3" class="edge">
<title>eu.gcr.io/karhoo&#45;common/ab:1.2.3&#45;&gt;eu.gcr.io/karhoo&#45;common/abd:1.2.3</title>
<path fill="none" stroke="#000000" d="M540.0141,-72C540.0141,-72 565.8051,-72 565.8051,-72"/>
<polygon fill="#000000" stroke="#000000" points="565.8051,-75.5001 575.8051,-72 565.805,-68.5001 565.8051,-75.5001"/>
</g>
</g>
</svg>
